# xmcd
#
# Track frame offsets:
#	150
#	9037
#	24975
#	33687
#	47800
#	53010
#	64925
#	75510
#	91850
#	104382
#	122892
#	138172
#
# Disc length: 2104
#
# Revision: 0
# Processed by: cddbd v1.5.1PL0 Copyright (c) Steve Scherf et al.
# Submitted via: Broken Cross Disk Manager 3.48.2046
#
DISCID=8e08360c
DTITLE=Old Timey Custard Suckin' Band - Old Timey Custard Suckin' Band
DYEAR=1970
DGENRE=
TTITLE0=The Farm Song
TTITLE1=The Brand New Tennessee Waltz
TTITLE2=Daybreak Blues
TTITLE3=Sittin' On The Top Of The World
TTITLE4=This Lane Ends 2000 Feet
TTITLE5=Vestibule Billy
TTITLE6=Payday At Coal Creek
TTITLE7=You Don't Miss Your Water
TTITLE8=The Ballad Of Fawn and Paul Dog
TTITLE9=I Still Miss Someone
TTITLE10=Gettin' Up
TTITLE11=With Nothing To Do
EXTD=
EXTT0=
EXTT1=
EXTT2=
EXTT3=
EXTT4=
EXTT5=
EXTT6=
EXTT7=
EXTT8=
EXTT9=
EXTT10=
EXTT11=
PLAYORDER=
